<?xml version="1.0" encoding="utf-8"?>
<!-- Generator: Adobe Illustrator 27.5.0, SVG Export Plug-In . SVG Version: 6.00 Build 0)  -->
<svg version="1.1" xmlns="http://www.w3.org/2000/svg" xmlns:xlink="http://www.w3.org/1999/xlink" x="0px" y="0px"
	 viewBox="0 0 3710 3710" style="enable-background:new 0 0 3710 3710;" xml:space="preserve">
<g id="Background">
	<g>
		<g>
			<rect style="fill:#FFFFFF;" width="3710" height="3710"/>
		</g>
	</g>
</g>
<g id="Illustration">
	<g>
		
			<linearGradient id="SVGID_1_" gradientUnits="userSpaceOnUse" x1="1367.3618" y1="3654.147" x2="-570.9417" y2="1590.792" gradientTransform="matrix(-1 0 0 1 1596.9999 0)">
			<stop  offset="0" style="stop-color:#DAE3FE"/>
			<stop  offset="1" style="stop-color:#E9EFFD"/>
		</linearGradient>
		<path style="fill:url(#SVGID_1_);" d="M811.612,2826.337c71.554,73.756,135.578,117.112,184.598,149.843
			c478.074,319.215,1024.566,227.209,1193.527,195.762c272.599-50.736,502.71-86.529,700.416-265.148
			c449.249-405.878,427.398-1252.571,84.117-1777.061c-40.703-62.189-383.464-570.268-931.138-641.86
			c-13.395-1.751-23.39-2.748-32.144-3.675c-84.724-8.97-609.741-56.314-1037.841,302.348
			c-61.28,51.341-159.898,143.946-251.349,285.184C387.413,1588.161,386.354,2387.998,811.612,2826.337z"/>
		<g>
			<g>
				<path style="fill:#BDD0FB;" d="M1227.627,2126.785c0,0,8.552-359.556-157.057-455.79
					c-165.607-96.234-480.487-156.399-492.29-672.688c-6.911-302.259-14.389-434.412-19.402-492.036
					c-1.955-22.479,18.02-40.622,40.193-36.446c156.845,29.547,666.365,151.164,773.19,498.935
					C1498.903,1381.046,1227.627,2126.785,1227.627,2126.785z"/>
				<path style="fill:#FFFFFF;" d="M720.37,613.474c172.168,153.55,371.25,425.302,477.362,697.054
					c13.621,44.786,53.463,140.03,70.765,309.251c15.453,141.134,7.771,290.27-10.967,388.991
					c-1.185,6.241-7.204,10.34-13.446,9.155c-10.732-2.036-9.304-13.578-9.208-13.214c21.4-168.666,12.517-378.6-36.518-568.022
					c-62.647-232.587-202.374-458.089-346.897-649.346l-14.872-18.833C724.617,624.713,701.045,623.653,711.513,613.63
					C713.985,611.262,717.854,611.241,720.37,613.474z"/>
			</g>
			<g>
				<path style="fill:#91B3FA;" d="M1496.607,2737.181c22.406,10.987-212.119-283.93-285.584-747.119
					c-34.619-218.267-35.071-491.736-159.405-597.122c-103.479-87.709-455.606-32.335-570.822-11.292
					c-14.397,2.629-19.244,20.816-8.037,30.228c55.252,46.402,170.449,156.736,204.244,266.161
					c81.291,263.2,180.936,244.002,302.569,262.9c124.758,19.382,192.59,49.316,252.877,247.219
					C1292.736,2386.059,1432.942,2705.963,1496.607,2737.181z"/>
				<path style="fill:#FFFFFF;" d="M642.84,1443.08c146.998,6.157,304.789,73.212,384.861,198.994l7.558,12.003
					c17.456,28.143,116.383,228.21,171.328,394.054c0.684,2.068-0.437,4.299-2.504,4.984c-3.512,1.163-5.271-2.702-4.936-2.36
					c-38.281-93.69-93.261-212.474-137.051-301.301c-46.96-96.929-79.823-162.572-186.935-225.449
					c-119.22-67.715-233.117-74.686-232.775-74.616c-1.738-0.178-3.004-1.731-2.826-3.469
					C639.731,1444.248,641.184,1443.014,642.84,1443.08z"/>
			</g>
		</g>
		<g>
			
				<linearGradient id="SVGID_00000041978043269140244840000002076638982947933326_" gradientUnits="userSpaceOnUse" x1="2369.4185" y1="-271.8616" x2="1999.2559" y2="2709.6123">
				<stop  offset="0" style="stop-color:#4F52FF"/>
				<stop  offset="1" style="stop-color:#4042E2"/>
			</linearGradient>
			<path style="fill:url(#SVGID_00000041978043269140244840000002076638982947933326_);" d="M1329.579,773.035l1458.181,17.578
				c80.447,0.97,146.021,64.813,149.143,145.205l82.149,2115.387c2.443,62.909-47.688,115.345-110.644,115.73l-1671.625,10.228
				c-59.156,0.362-107.103-47.872-106.39-107.024l25.649-2127.703C1157.185,847.737,1234.88,771.893,1329.579,773.035z"/>
			<g>
				<path style="fill:#91B3FA;" d="M1334.271,755.953c198.803,29.404,882.544,121.176,1449.21,84.541
					c25.842-1.671,48.012,18.161,49.075,44.035l87.261,2124.874c1.197,29.135-21.338,53.767-50.466,55.138
					c-238.278,11.221-1219.541,53.872-1568.867,13.02c-21.261-2.487-37.203-20.603-37.071-42.009l13.767-2230.604
					C1277.367,774.647,1304.296,751.519,1334.271,755.953z"/>
				<path style="opacity:0.6;fill:#FFFFFF;" d="M1354.935,811.294c191.316,28.297,849.311,116.613,1394.639,81.357
					c24.869-1.608,46.204,17.477,47.227,42.377l83.976,2044.861c1.152,28.038-20.534,51.741-48.565,53.062
					c-229.305,10.798-1173.619,51.843-1509.79,12.53c-20.461-2.394-35.803-19.828-35.675-40.427l13.248-2146.609
					C1300.174,829.285,1326.088,807.028,1354.935,811.294z"/>
				<path style="opacity:0.6;fill:#FFFFFF;" d="M1460.876,1055.346c165.595,20.214,735.11,83.423,1206.893,59.791
					c21.515-1.078,40.014,12.342,40.948,29.798l76.712,1433.517c1.052,19.656-17.665,36.228-41.917,37.098
					c-198.388,7.115-1015.389,34.014-1306.344,5.792c-17.709-1.718-31.018-13.969-30.948-28.409l7.21-1504.645
					C1413.528,1067.848,1435.907,1052.298,1460.876,1055.346z"/>
			</g>
			
				<linearGradient id="SVGID_00000023992243294987915580000001361150098164175251_" gradientUnits="userSpaceOnUse" x1="1439.4165" y1="-669.3025" x2="778.1771" y2="200.5424" gradientTransform="matrix(0.918 0.3967 -0.3967 0.918 831.0952 440.8249)">
				<stop  offset="0" style="stop-color:#09005D"/>
				<stop  offset="1" style="stop-color:#1A0F91"/>
			</linearGradient>
			<path style="fill:url(#SVGID_00000023992243294987915580000001361150098164175251_);" d="M2152.583,494.669
				c-52.23-37.277-98.037-37.103-130.392-27.979c-29.514,8.323-48.918,36.488-46.489,67.058l12.074,151.926l165.272,16.677
				C2153.047,702.351,2255.013,567.776,2152.583,494.669z M2078.348,616.223c-22.784-0.274-41.031-18.966-40.756-41.751
				c0.274-22.784,18.967-41.032,41.751-40.758c22.784,0.275,41.032,18.968,40.757,41.752
				C2119.826,598.252,2101.133,616.498,2078.348,616.223z"/>
			<g>
				<path style="fill:#BDD0FB;" d="M2005.121,621.406c-1.738,0-3.211-1.337-3.352-3.099l-1.922-24.193
					c-0.148-1.853,1.236-3.474,3.089-3.621c1.853-0.128,3.474,1.236,3.621,3.089l1.922,24.193c0.148,1.853-1.236,3.474-3.089,3.621
					C2005.302,621.403,2005.21,621.406,2005.121,621.406z M2001.352,573.993c-1.738,0-3.211-1.337-3.352-3.099l-1.459-18.37
					c-2.294-28.823,16.145-55.412,43.841-63.227c19.714-5.554,39.974-6.142,60.191-1.748c1.817,0.394,2.971,2.189,2.576,4.003
					c-0.398,1.817-2.192,2.974-4.003,2.576c-19.146-4.16-38.298-3.608-56.937,1.65c-24.614,6.94-40.999,30.582-38.958,56.214
					l1.459,18.37c0.148,1.854-1.236,3.474-3.089,3.622C2001.533,573.989,2001.441,573.993,2001.352,573.993z"/>
			</g>
			
				<linearGradient id="SVGID_00000154386306401989302500000004540578921823837631_" gradientUnits="userSpaceOnUse" x1="1828.5374" y1="191.5657" x2="1157.7961" y2="1073.9099" gradientTransform="matrix(1 0.0121 -0.0121 1 564.6042 122.0899)">
				<stop  offset="0" style="stop-color:#09005D"/>
				<stop  offset="1" style="stop-color:#1A0F91"/>
			</linearGradient>
			<path style="fill:url(#SVGID_00000154386306401989302500000004540578921823837631_);" d="M1760.786,781.026l0.92-76.299
				c0.318-26.339,22.402-47.17,48.715-45.951l525.834,24.365c23.336,1.081,42.02,19.736,43.137,43.071l3.512,73.366
				L1760.786,781.026z"/>
			<path style="fill:#BDD0FB;" d="M1958.118,688.682c-0.013,0-0.026,0-0.039,0l-22.622-0.273c-1.86-0.023-3.349-1.548-3.326-3.404
				c0.02-1.86,1.587-3.362,3.405-3.326l22.622,0.273c1.86,0.023,3.349,1.548,3.326,3.405
				C1961.46,687.203,1959.959,688.682,1958.118,688.682z"/>
			<path style="fill:#BDD0FB;" d="M1789.598,756.782c-0.013,0-0.026,0-0.026,0c-1.873-0.023-3.362-1.548-3.339-3.404l0.371-30.864
				c0.138-11.387,4.703-22.037,12.849-29.99c8.147-7.956,19.04-12.199,30.286-12.12l83.171,1.002
				c1.86,0.023,3.349,1.548,3.326,3.404c-0.023,1.86-1.515,3.319-3.404,3.326l-83.171-1.002c-0.151-0.003-0.299-0.003-0.447-0.003
				c-9.422,0-18.304,3.615-25.061,10.21c-6.858,6.697-10.703,15.665-10.818,25.251l-0.371,30.864
				C1792.94,755.304,1791.438,756.782,1789.598,756.782z"/>
			
				<linearGradient id="SVGID_00000003812152297027781290000016269994808948264585_" gradientUnits="userSpaceOnUse" x1="2069.6685" y1="-8.0452" x2="2062.938" y2="961.0989">
				<stop  offset="0" style="stop-color:#53D8FF"/>
				<stop  offset="1" style="stop-color:#3840F7"/>
			</linearGradient>
			<path style="fill:url(#SVGID_00000003812152297027781290000016269994808948264585_);" d="M1596.292,751.114l919.901,11.064
				c33.077,0.398,61.068,24.542,66.318,57.203l0.724,4.507c5.75,35.775-22.129,68.095-58.36,67.658l-943.764-11.377
				c-21.682-0.261-38.742-18.599-37.44-40.244l2.54-42.216C1547.798,771.303,1569.839,750.796,1596.292,751.114z"/>
			<path style="opacity:0.6;fill:#FFFFFF;" d="M2239.756,2772.09h-826.773c-4.753,0-8.605-3.853-8.605-8.605v-40.706
				c0-4.753,3.853-8.605,8.605-8.605h826.773c4.753,0,8.606,3.853,8.606,8.605v40.706
				C2248.362,2768.237,2244.509,2772.09,2239.756,2772.09z"/>
			<path style="opacity:0.6;fill:#FFFFFF;" d="M2237.331,2870.812h-826.773c-4.753,0-8.606-3.853-8.606-8.605V2821.5
				c0-4.753,3.853-8.605,8.606-8.605h826.773c4.753,0,8.605,3.853,8.605,8.605v40.706
				C2245.937,2866.959,2242.084,2870.812,2237.331,2870.812z"/>
			<path style="opacity:0.6;fill:#FFFFFF;" d="M2230.601,2968.948h-826.773c-4.753,0-8.605-3.853-8.605-8.605v-40.706
				c0-4.753,3.853-8.605,8.605-8.605h826.773c4.753,0,8.605,3.853,8.605,8.605v40.706
				C2239.206,2965.095,2235.354,2968.948,2230.601,2968.948z"/>
		</g>
		<g>
			<g>
				<rect x="655.908" y="2875.698" style="fill:#7D97F4;" width="474.478" height="84.127"/>
				<g>
					<path style="fill:#7D97F4;" d="M646.343,2868.968l33.783,342.107c1.429,14.473,7.34,24.688,14.182,24.688h13.529
						c7.658,0,13.996-12.751,14.474-29.285l9.755-337.51H646.343z"/>
					<path style="fill:#7D97F4;" d="M1139.57,2892.523l-33.783,342.107c-1.429,14.473-7.34,24.688-14.182,24.688h-13.529
						c-7.658,0-13.996-12.751-14.474-29.285l-9.755-337.51H1139.57z"/>
				</g>
				
					<linearGradient id="SVGID_00000008864403614115158800000001277615748060086440_" gradientUnits="userSpaceOnUse" x1="568.8995" y1="2285.813" x2="1356.1627" y2="3470.3848">
					<stop  offset="0" style="stop-color:#FF928E"/>
					<stop  offset="1" style="stop-color:#FE7062"/>
				</linearGradient>
				<path style="fill:url(#SVGID_00000008864403614115158800000001277615748060086440_);" d="M1210.886,2744.229
					c-5.801-11.282-14.311-17.572-22.493-17.486l-457.175,4.908c-12.886,0.139-24.918-13.656-31.013-35.851l-154.347-561.714
					c-10.042-36.566-32.132-53.692-52.273-40.567l-4.139,2.684c-11.555,7.531-20.985,24.164-25.989,45.874
					c-5.004,21.712-5.143,46.524-0.373,68.436l129.175,593.475c12.164,55.888,39.929,92.688,70.988,94.086l507.633,22.867
					c12.568,0.568,26.017-8.798,35.009-25.975c8.992-17.18,15.355-40.719,15.355-65.299v-42.826
					C1221.244,2770.845,1216.688,2755.509,1210.886,2744.229z"/>
			</g>
			<g>
				
					<linearGradient id="SVGID_00000023280966786331891330000011708656004825067937_" gradientUnits="userSpaceOnUse" x1="-3817.7312" y1="-99.2723" x2="-3867.895" y2="48.269" gradientTransform="matrix(0.8649 -0.502 0.502 0.8649 4596.7231 325.8896)">
					<stop  offset="0" style="stop-color:#FEBBBA"/>
					<stop  offset="1" style="stop-color:#FF928E"/>
				</linearGradient>
				<path style="fill:url(#SVGID_00000023280966786331891330000011708656004825067937_);" d="M1317.192,2133.634l-6.328-10.292
					c-3.642-5.922-9.779-9.868-16.679-10.723l-67.345-8.348c0,0-2.987-7.563,9.386-16.517c12.372-8.954,5.063-23.531,5.063-23.531
					s-16.549,13.574-40.495,34.494c-13.696,11.964-18.895,28.058-20.841,39.651l-10.78,23.631
					c6.016,7.088,15.315,12.704,29.455,10.912l2.45-18.09C1241.573,2156.148,1280.099,2148.245,1317.192,2133.634z"/>
				
					<linearGradient id="SVGID_00000049937755524215770100000014872206510051011220_" gradientUnits="userSpaceOnUse" x1="1307.4922" y1="1864.6024" x2="902.8792" y2="2563.479">
					<stop  offset="0" style="stop-color:#E1473D"/>
					<stop  offset="1" style="stop-color:#E9605A"/>
				</linearGradient>
				<path style="fill:url(#SVGID_00000049937755524215770100000014872206510051011220_);" d="M1169.173,2160.264
					c-7.251,15.896-14.458,31.813-21.704,47.711c-9.319,20.445-17.099,46.566-32.086,63.639
					c-17.669,20.129-46.606,16.6-64.702-0.988c-19.839-19.282-41.031-37.027-61.548-55.6c-5.411-4.9-10.969-9.633-16.425-14.482
					l-1.549,124.854c50.006,22.788,105.073,61.336,162.36,41.749c15.777-5.395,31.585-15.432,40.547-29.827
					c5.369-8.624,9.95-20.572,10.985-30.734c0.002-0.02,13.788-135.24,13.788-135.24
					C1182.522,2173.413,1176.117,2168.444,1169.173,2160.264z"/>
			</g>
			<g>
				<g>
					<path style="fill:#91B3FA;" d="M1231.232,3195.539c-49.528,0-71.442-4.249-81.24-8.124c1.904,8.133,9.148,14.555,18.302,14.555
						h175.214c5.9,0,9.625-5.648,8.215-10.762C1331.751,3192.815,1289.331,3195.539,1231.232,3195.539z"/>
					
						<linearGradient id="SVGID_00000127764517358916816730000003853054152236014211_" gradientUnits="userSpaceOnUse" x1="-1724.4709" y1="2806.2136" x2="-1779.6709" y2="3187.5955" gradientTransform="matrix(1 0 0 1 3030.1194 0)">
						<stop  offset="0" style="stop-color:#09005D"/>
						<stop  offset="1" style="stop-color:#1A0F91"/>
					</linearGradient>
					<path style="fill:url(#SVGID_00000127764517358916816730000003853054152236014211_);" d="M1351.724,3191.208
						c-0.284-1.031-0.702-2.046-1.435-2.982c-13.346-17.04-40.158-43.801-76.629-43.288c-53.428,0.752-72.057,6.548-113.576,0.326
						l-9.795,32.466c-0.997,3.309-1.016,6.615-0.297,9.685c9.798,3.875,31.712,8.124,81.24,8.124
						C1289.331,3195.539,1331.751,3192.815,1351.724,3191.208z"/>
				</g>
				
					<linearGradient id="SVGID_00000049213483884336304620000012894516869206824861_" gradientUnits="userSpaceOnUse" x1="-1870.0344" y1="3133.8105" x2="-1815.3719" y2="3133.8105" gradientTransform="matrix(1 0 0 1 3030.1194 0)">
					<stop  offset="0" style="stop-color:#FEBBBA"/>
					<stop  offset="1" style="stop-color:#FF928E"/>
				</linearGradient>
				<path style="fill:url(#SVGID_00000049213483884336304620000012894516869206824861_);" d="M1172.108,3110.278l-12.023,40.891
					c0,0,26.635,12.126,50.062,2.392l4.6-35.428L1172.108,3110.278z"/>
				<g>
					<path style="fill:#91B3FA;" d="M1535.259,3169.788c-38.609,31.022-58.34,41.452-68.394,44.582
						c6.555,5.117,16.204,5.562,23.341-0.172l136.586-109.746c4.6-3.696,3.982-10.41-0.305-13.495
						C1611.92,3104.713,1580.549,3133.398,1535.259,3169.788z"/>
					
						<linearGradient id="SVGID_00000057830408913905104470000013275547006501275536_" gradientUnits="userSpaceOnUse" x1="-1451.0552" y1="2845.7854" x2="-1506.2551" y2="3227.1682" gradientTransform="matrix(1 0 0 1 3030.1194 0)">
						<stop  offset="0" style="stop-color:#09005D"/>
						<stop  offset="1" style="stop-color:#1A0F91"/>
					</linearGradient>
					<path style="fill:url(#SVGID_00000057830408913905104470000013275547006501275536_);" d="M1626.488,3090.957
						c-0.865-0.622-1.823-1.147-2.978-1.415c-21.026-4.86-58.609-8.83-86.72,14.412c-41.181,34.049-52.089,50.214-88.334,71.392
						l12.604,31.324c1.285,3.192,3.331,5.768,5.806,7.7c10.053-3.13,29.785-13.56,68.394-44.582
						C1580.549,3133.398,1611.92,3104.713,1626.488,3090.957z"/>
				</g>
				
					<linearGradient id="SVGID_00000142134923469045692360000003284792089468611515_" gradientUnits="userSpaceOnUse" x1="1219.4448" y1="2692.093" x2="751.6978" y2="3284.3486">
					<stop  offset="0" style="stop-color:#09005D"/>
					<stop  offset="1" style="stop-color:#1A0F91"/>
				</linearGradient>
				<path style="fill:url(#SVGID_00000142134923469045692360000003284792089468611515_);" d="M914.911,2644.394
					c0,0,296.523,24.211,357.353,52.848c60.829,28.636-49.641,429.977-49.641,429.977s-16.56,7.97-53.409-3.485
					c0,0,37.786-296.175,9.668-360.397l-321.059-52.513L914.911,2644.394z"/>
				
					<linearGradient id="SVGID_00000121241706759472588100000011337059460288330397_" gradientUnits="userSpaceOnUse" x1="6228.6685" y1="7254.2095" x2="6180.4131" y2="7228.7656" gradientTransform="matrix(1 0 0 1 3030.1194 0)">
					<stop  offset="0" style="stop-color:#FEBBBA"/>
					<stop  offset="1" style="stop-color:#FF928E"/>
				</linearGradient>
				<path style="fill:url(#SVGID_00000121241706759472588100000011337059460288330397_);" d="M1418.995,3118.969
					c2.753,2.509,29.462,56.377,29.462,56.377s29.735-6.433,35.798-25.25l-26.755-48.619L1418.995,3118.969z"/>
				
					<linearGradient id="SVGID_00000163060109795467509340000017019206377912050109_" gradientUnits="userSpaceOnUse" x1="1922.5104" y1="1805.2328" x2="1612.9208" y2="2209.0452">
					<stop  offset="0" style="stop-color:#09005D"/>
					<stop  offset="1" style="stop-color:#1A0F91"/>
				</linearGradient>
				<path style="fill:url(#SVGID_00000163060109795467509340000017019206377912050109_);" d="M736.317,2641.916
					c0,0-9.663,23.251-9.268,54.15c0.545,42.731,34.899,77.407,77.58,79.537l350.539,15.985c7.403,0.338,13.666,5.461,15.521,12.636
					c8.237,31.862,48.5,129.705,245.316,324.944c5.236,5.195,13.393,6.079,19.629,2.139l28.017-17.697
					c2.941-1.858,3.88-5.713,2.122-8.716l-204.102-348.535c-10.72-17.691-27.953-30.471-47.994-35.594l-298.768-76.371
					L736.317,2641.916z"/>
				
					<linearGradient id="SVGID_00000127758841949660105020000005444170555997243015_" gradientUnits="userSpaceOnUse" x1="532.9811" y1="2883.7524" x2="1073.6907" y2="2155.4502">
					<stop  offset="0" style="stop-color:#E1473D"/>
					<stop  offset="1" style="stop-color:#E9605A"/>
				</linearGradient>
				<path style="fill:url(#SVGID_00000127758841949660105020000005444170555997243015_);" d="M735.371,2640.888
					c0,0-3.475-173.741,31.256-337.25c12.826-60.379,46.205-114.437,94.691-152.638l16.22-12.78l81.239,33.003l41.749,72.137
					c22.984,45.966,17.34,145.794,0,194.172c-28.992,80.892-52.177,164.718-62.059,205.893
					C938.469,2643.427,803.916,2661.198,735.371,2640.888z"/>
				
					<linearGradient id="SVGID_00000005260245051433358170000001977603447861224582_" gradientUnits="userSpaceOnUse" x1="-2160.196" y1="2098.3838" x2="-2043.4149" y2="2098.3838" gradientTransform="matrix(1 0 0 1 3030.1194 0)">
					<stop  offset="0" style="stop-color:#FEBBBA"/>
					<stop  offset="1" style="stop-color:#FF928E"/>
				</linearGradient>
				<path style="fill:url(#SVGID_00000005260245051433358170000001977603447861224582_);" d="M933.391,2008.746l-63.468,147.245
					c0,0,20.31,45.698,91.394,27.926l25.388-101.549L933.391,2008.746z"/>
				<g>
					
						<linearGradient id="SVGID_00000160153698623325244460000017458325843340059529_" gradientUnits="userSpaceOnUse" x1="-2659.5266" y1="2474.4819" x2="-2825.9675" y2="2694.6694" gradientTransform="matrix(0.9372 -0.3487 0.3487 0.9372 2658.55 -1292.5793)">
						<stop  offset="0" style="stop-color:#FEBBBA"/>
						<stop  offset="1" style="stop-color:#FF928E"/>
					</linearGradient>
					<path style="fill:url(#SVGID_00000160153698623325244460000017458325843340059529_);" d="M1059.169,1941.591
						c0.765,2.057,2.447,147.125,2.447,147.125l-82.853-0.801l-22.021-137.258
						C956.743,1950.657,1046.359,1907.162,1059.169,1941.591z"/>
					
						<linearGradient id="SVGID_00000023982905573647518380000008887696851633890488_" gradientUnits="userSpaceOnUse" x1="761.6584" y1="1262.7343" x2="909.7227" y2="1693.4669">
						<stop  offset="0" style="stop-color:#09005D"/>
						<stop  offset="1" style="stop-color:#1A0F91"/>
					</linearGradient>
					<path style="fill:url(#SVGID_00000023982905573647518380000008887696851633890488_);" d="M981.044,1977.051l5.935,73.163
						c0.076,0.938,0.271,1.839,0.599,2.722c2.002,5.403,10.251,23.485,28.237,13.917c16.32-8.683,31.344-16.364,43.082-15.376
						c5.271,0.444,9.336,4.806,9.396,10.094c0.149,13.18-0.063,42.888-4.186,68.669c-0.836,5.232-5.573,8.908-10.858,8.534
						c-15.925-1.129-49.444-4.45-75.784-13.438c-3.57-1.218-6.193-4.246-6.834-7.963c-3.123-18.119-12.822-73.151-17.896-88.068
						c-4.764-14.002-24.247-18.795-32.571-20.224c-2.729-0.468-5.125-2.021-6.671-4.318c-5.466-8.118-14.8-27.624,9.291-41.651
						c5.042-2.936,6.636-9.4,3.549-14.351c-6.147-9.855-11.291-25.811,6.813-39.127c18.401-13.536,35.965-5.964,46.09,1.088
						c4.093,2.851,9.542,2.242,13.101-1.253c2.026-1.99,4.944-3.13,9.089-1.644c5.585,2.003,11.65-1.497,13.063-7.259
						c2.715-11.07,10.339-23.947,31.025-24.843c36.705-1.59,49.193,36.766,44.824,61.77c-4.369,25.003-44.262,24.464-65.831,16.998
						c-16.399-5.677-33.205,7.621-40.319,14.323C981.934,1970.933,980.794,1973.965,981.044,1977.051z"/>
					
						<linearGradient id="SVGID_00000159462167091307998420000005717034369381575317_" gradientUnits="userSpaceOnUse" x1="-2903.2961" y1="2648.8521" x2="-2769.7983" y2="2511.8867" gradientTransform="matrix(0.9372 -0.3487 0.3487 0.9372 2658.55 -1292.5793)">
						<stop  offset="0" style="stop-color:#FEBBBA"/>
						<stop  offset="1" style="stop-color:#FF928E"/>
					</linearGradient>
					<path style="fill:url(#SVGID_00000159462167091307998420000005717034369381575317_);" d="M955.159,2055.921
						c0,0,5.742-43.893-11.365-50.64c-17.107-6.748-38.129,3.22-26.873,31.684C930.923,2072.372,955.159,2055.921,955.159,2055.921z
						"/>
				</g>
				
					<linearGradient id="SVGID_00000146457490933961736530000008610938775577720752_" gradientUnits="userSpaceOnUse" x1="1295.9572" y1="1857.923" x2="891.3438" y2="2556.8003">
					<stop  offset="0" style="stop-color:#FF928E"/>
					<stop  offset="1" style="stop-color:#FE7062"/>
				</linearGradient>
				<path style="fill:url(#SVGID_00000146457490933961736530000008610938775577720752_);" d="M1128.938,2501.343
					c-209.23,65.683-198.099-228.806-199.455-230.877c-82.944-126.748-129.519,42.159-121.481,65.97
					c73.568,266.345,259.027,253.159,331.292,200.839C1130.296,2523.277,1128.244,2510.957,1128.938,2501.343z"/>
				
					<linearGradient id="SVGID_00000049191278214452960220000016750858175070040476_" gradientUnits="userSpaceOnUse" x1="934.0696" y1="1836.9327" x2="950.8954" y2="2425.8252">
					<stop  offset="0" style="stop-color:#FEBBBA"/>
					<stop  offset="1" style="stop-color:#FF928E"/>
				</linearGradient>
				<path style="fill:url(#SVGID_00000049191278214452960220000016750858175070040476_);" d="M968.548,2455.916
					c-1.155-0.358-2.195-1.111-2.899-2.208c-31.701-49.401-40.647-118.048-42.57-166.936c-0.115-2.937,2.173-5.412,5.11-5.528
					c2.938-0.117,5.412,2.17,5.527,5.109c1.532,38.943,8.88,111.72,40.894,161.606c1.587,2.473,0.868,5.766-1.606,7.354
					C971.627,2456.196,969.997,2456.365,968.548,2455.916z"/>
				
					<linearGradient id="SVGID_00000054970339958737792180000006025300514518850224_" gradientUnits="userSpaceOnUse" x1="842.2731" y1="1839.5553" x2="859.0988" y2="2428.4475">
					<stop  offset="0" style="stop-color:#FEBBBA"/>
					<stop  offset="1" style="stop-color:#FF928E"/>
				</linearGradient>
				<path style="fill:url(#SVGID_00000054970339958737792180000006025300514518850224_);" d="M910.12,2522.837
					c-0.655-0.203-1.281-0.537-1.839-1.004c-47.818-40.072-83.846-103.04-107.081-187.156c-0.783-2.834,0.88-5.766,3.714-6.549
					c2.834-0.78,5.766,0.882,6.548,3.714c22.648,81.996,57.524,143.172,103.657,181.831c2.253,1.889,2.548,5.246,0.661,7.499
					C914.36,2522.866,912.108,2523.453,910.12,2522.837z"/>
				
					<linearGradient id="SVGID_00000085968778331213705170000009672155431660680360_" gradientUnits="userSpaceOnUse" x1="-2267.4905" y1="3472.1191" x2="-2440.304" y2="3752.533" gradientTransform="matrix(0.9551 0.2964 -0.2964 0.9551 4409.4653 -175.8474)">
					<stop  offset="0" style="stop-color:#FEBBBA"/>
					<stop  offset="1" style="stop-color:#FF928E"/>
				</linearGradient>
				<path style="fill:url(#SVGID_00000085968778331213705170000009672155431660680360_);" d="M1252.103,2439.854
					c0,0-3.397,5.426-27.894,24.406c-24.497,18.98-49.161,29.934-30.434,3.847c18.728-26.086,9.614-39.547-11.758-11.447
					c-21.371,28.101-36.651,38.956-36.651,38.956c-5.625,2.153-11.095,4.052-16.43,5.727c-0.695,9.614,1.358,21.934,10.356,35.933
					c8.476-2.803,13.265-4.872,13.265-4.872s64.796-11.791,78.674-39.382C1245.111,2465.43,1252.103,2439.854,1252.103,2439.854z"/>
			</g>
		</g>
		<g>
			
				<linearGradient id="SVGID_00000010296545653909663050000014579843500934404749_" gradientUnits="userSpaceOnUse" x1="3468.1521" y1="1543.5161" x2="3279.8958" y2="1889.7725" gradientTransform="matrix(1 0 0 1 -463.1432 0)">
				<stop  offset="0" style="stop-color:#09005D"/>
				<stop  offset="1" style="stop-color:#1A0F91"/>
			</linearGradient>
			<path style="fill:url(#SVGID_00000010296545653909663050000014579843500934404749_);" d="M2734.393,1922.152
				c0,0-13.046-49.114,56.393-57.3c69.439-8.186,88.755,111.324,33.704,127.473
				C2769.438,2008.474,2734.393,1922.152,2734.393,1922.152z"/>
			
				<linearGradient id="SVGID_00000052791361064861709840000002100019556839616176_" gradientUnits="userSpaceOnUse" x1="3180.0664" y1="2150.9563" x2="3764.7261" y2="3004.4243" gradientTransform="matrix(1 0 0 1 -463.1432 0)">
				<stop  offset="0" style="stop-color:#E1473D"/>
				<stop  offset="1" style="stop-color:#E9605A"/>
			</linearGradient>
			<path style="fill:url(#SVGID_00000052791361064861709840000002100019556839616176_);" d="M3207.554,2181.922
				c-21.511-23.271-51.694-36.598-83.381-36.825l-415.448-2.943c-33.799-0.24-65.981,14.448-87.949,40.134
				c-21.967,25.686-31.482,59.67-26.001,93.022l83.186,506.165h523.005l36.757-513.63
				C3239.985,2236.238,3229.064,2205.19,3207.554,2181.922z"/>
			
				<linearGradient id="SVGID_00000048461862822524067640000000980513134749236407_" gradientUnits="userSpaceOnUse" x1="3020.6482" y1="2451.543" x2="3285.7605" y2="2451.543" gradientTransform="matrix(1 0 0 1 -463.1432 0)">
				<stop  offset="0" style="stop-color:#FEBBBA"/>
				<stop  offset="1" style="stop-color:#FF928E"/>
			</linearGradient>
			<polygon style="fill:url(#SVGID_00000048461862822524067640000000980513134749236407_);" points="2568.228,2426.727 
				2789.623,2422.074 2822.617,2481.012 2557.505,2468.998 			"/>
			<rect x="2738.902" y="2976.651" style="fill:#7D97F4;" width="370.16" height="40.381"/>
			<g>
				<path style="fill:#7D97F4;" d="M2709.906,2801.666l26.477,432.626c0.176,2.86,2.279,8.201,4.813,8.201h17.464
					c2.665,0,7.163-6.378,7.163-9.394v-431.434H2709.906z"/>
				<path style="fill:#7D97F4;" d="M3147.468,2801.666l-26.477,432.626c-0.176,2.86-2.278,8.201-4.813,8.201h-17.464
					c-2.665,0-6.478-6.378-6.478-9.394v-431.434H3147.468z"/>
			</g>
			
				<linearGradient id="SVGID_00000149351212383910390130000008194062170956928937_" gradientUnits="userSpaceOnUse" x1="1990.8911" y1="2773.7883" x2="2715.2146" y2="2770.8076" gradientTransform="matrix(1 0 0 1 -463.1432 0)">
				<stop  offset="0" style="stop-color:#FF928E"/>
				<stop  offset="1" style="stop-color:#FE7062"/>
			</linearGradient>
			<path style="fill:url(#SVGID_00000149351212383910390130000008194062170956928937_);" d="M3250.396,2768.807
				c0,33.016-26.764,59.78-59.78,59.78h-519.808c-33.016,0-59.78-26.764-59.78-59.78v-1.584c0-33.015,26.764-59.78,59.78-59.78
				h519.808c33.016,0,59.78,26.764,59.78,59.78V2768.807z"/>
			<g>
				
					<linearGradient id="SVGID_00000031928113983395153450000017662971610781381053_" gradientUnits="userSpaceOnUse" x1="5772.0073" y1="3484.3589" x2="5358.4365" y2="3720.4194" gradientTransform="matrix(-0.9155 0.4023 0.4023 0.9155 6087.5176 -2678.031)">
					<stop  offset="0" style="stop-color:#FEBBBA"/>
					<stop  offset="1" style="stop-color:#FF928E"/>
				</linearGradient>
				<path style="fill:url(#SVGID_00000031928113983395153450000017662971610781381053_);" d="M2416.597,3168.497
					c0.38-0.377,57.084-539.571,72.517-594.75c2.597-9.281,9.73-16.561,18.951-19.368l72.295-22.004l155.914,91.609l-167.343,28.304
					c53.741,86.166-58.889,298.817-96.199,374.746c-3.786,7.706-0.294,16.992,7.633,20.29l34.529,14.363
					c-21.531,56.417-55.228,101.377-100.657,135.287L2416.597,3168.497z"/>
				
					<linearGradient id="SVGID_00000071545613035978901750000015112948027842261408_" gradientUnits="userSpaceOnUse" x1="2517.2493" y1="2977.3127" x2="2484.7122" y2="3476.2146" gradientTransform="matrix(0.6441 -0.765 0.765 0.6441 -1552.0348 3040.5171)">
					<stop  offset="0" style="stop-color:#09005D"/>
					<stop  offset="1" style="stop-color:#1A0F91"/>
				</linearGradient>
				<path style="fill:url(#SVGID_00000071545613035978901750000015112948027842261408_);" d="M2495.344,3054.337
					c0,0,17.235-1.757,28.253,9.44c5.272,5.357,5.837,13.8,2.005,20.265c-17.028,28.728-73.745,122.242-106.628,150.127
					c-2.696,2.286-6.879,0.777-7.57-2.689c-1.921-9.641-3.354-29.952,5.587-64.534l-0.201,4.469
					c-0.255,5.656,6.93,8.27,10.324,3.738C2446.141,3149.748,2483.94,3095.834,2495.344,3054.337z"/>
			</g>
			
				<linearGradient id="SVGID_00000132048455187898531550000004581141878507609262_" gradientUnits="userSpaceOnUse" x1="5935.1641" y1="3208.415" x2="7385.3882" y2="2300.5525" gradientTransform="matrix(-0.9615 0.2748 0.2748 0.9615 7100.771 -1920.5399)">
				<stop  offset="0" style="stop-color:#FEBBBA"/>
				<stop  offset="1" style="stop-color:#FF928E"/>
			</linearGradient>
			<path style="fill:url(#SVGID_00000132048455187898531550000004581141878507609262_);" d="M2522.545,3192.425
				c0.354-0.402,12.434-104.927,12.788-105.327c-26.311-226.665,7.459-436.877,19.104-492.979c1.96-9.436,8.58-17.185,17.589-20.612
				l70.631-26.871l166.536,128.096l-169.782-7.684c59.478,82.311-38.426,302.131-70.483,380.422
				c-3.254,7.945,0.862,16.973,8.996,19.723l35.426,11.982c-17.643,57.751-48.203,104.899-91.221,141.82L2522.545,3192.425z"/>
			
				<linearGradient id="SVGID_00000015314149376552031160000011529981880660042162_" gradientUnits="userSpaceOnUse" x1="2513.0957" y1="2358.1184" x2="2480.5586" y2="2857.0225" gradientTransform="matrix(0.5905 -0.807 0.807 0.5905 -943.1511 3697.0984)">
				<stop  offset="0" style="stop-color:#09005D"/>
				<stop  offset="1" style="stop-color:#1A0F91"/>
			</linearGradient>
			<path style="fill:url(#SVGID_00000015314149376552031160000011529981880660042162_);" d="M2593.344,3073.172
				c0,0,17.076-2.925,28.831,7.496c5.624,4.986,6.762,13.371,3.379,20.083c-15.035,29.819-65.259,126.975-96.169,157.032
				c-2.533,2.464-6.81,1.243-7.735-2.168c-2.572-9.489-5.384-29.654,1.184-64.765l0.103,4.473c0.13,5.66,7.477,7.78,10.554,3.027
				C2550.745,3171.71,2584.789,3115.351,2593.344,3073.172z"/>
			
				<linearGradient id="SVGID_00000167361446038268294050000002154299037122961294_" gradientUnits="userSpaceOnUse" x1="3241.5928" y1="1639.4166" x2="3012.7661" y2="2167.7361">
				<stop  offset="0" style="stop-color:#09005D"/>
				<stop  offset="1" style="stop-color:#1A0F91"/>
			</linearGradient>
			<path style="fill:url(#SVGID_00000167361446038268294050000002154299037122961294_);" d="M3087.01,2672.904
				c-5.589-46.215-73.705-147.528-73.705-147.528s-264.201-8.594-295.055,3.379c-23.948,9.294-121.666,4.042-164.212,1.225
				c-1.619-0.107-3.079,0.966-3.462,2.54c-0.383,1.577,0.423,3.2,1.91,3.846c103.918,45.203,113.907,70.963,127.65,158.583
				c0,0,104.586,63.584,316.745,46.044C3068.175,2735.101,3092.6,2719.119,3087.01,2672.904z"/>
			
				<linearGradient id="SVGID_00000106842243303839409950000011601733462850120324_" gradientUnits="userSpaceOnUse" x1="2688.342" y1="2326.7422" x2="3082.2969" y2="2326.7422">
				<stop  offset="0" style="stop-color:#4F52FF"/>
				<stop  offset="1" style="stop-color:#4042E2"/>
			</linearGradient>
			<path style="fill:url(#SVGID_00000106842243303839409950000011601733462850120324_);" d="M2829.094,2510.367
				c0,0-79.322-75.53-118.367-125.556c-21.106-27.042-27.734-62.642-17.973-95.528c17.826-60.057,49.506-122.26,52.395-131.941
				c4.428-14.84,93.368-14.222,93.368-14.222s175.015,113.587,243.78,305.994l-77.226,24.042c0,0-45.697-76.664-90.848-125.406
				c0,0,78.127,103.208,80.878,145.46L2829.094,2510.367z"/>
			
				<linearGradient id="SVGID_00000148661150069753660980000017556672742306075796_" gradientUnits="userSpaceOnUse" x1="2382.4673" y1="2262.2773" x2="2353.6689" y2="2077.49" gradientTransform="matrix(1 0 0 1 425.7308 0)">
				<stop  offset="0" style="stop-color:#FEBBBA"/>
				<stop  offset="1" style="stop-color:#FF928E"/>
			</linearGradient>
			<path style="fill:url(#SVGID_00000148661150069753660980000017556672742306075796_);" d="M2734.393,2074.409
				c0.929,3.085,24.142,80.041,25.958,81.638c1.816,1.598,50.909,4.238,74.017-11.555l-47.165-104.335L2734.393,2074.409z"/>
			
				<linearGradient id="SVGID_00000084492491135547848040000005275737800991935928_" gradientUnits="userSpaceOnUse" x1="3032.8418" y1="810.5021" x2="3218.9333" y2="936.9039" gradientTransform="matrix(0.723 -0.6909 0.6909 0.723 -95.1001 3572.7656)">
				<stop  offset="0" style="stop-color:#FEBBBA"/>
				<stop  offset="1" style="stop-color:#FF928E"/>
			</linearGradient>
			<path style="fill:url(#SVGID_00000084492491135547848040000005275737800991935928_);" d="M2670.549,1987.965
				c0,0-16.527,38.175,2.89,96.213c19.418,58.039,51.151,63.082,71.247,48.734c20.096-14.348,46.155-39.987,49.395-92.561
				C2797.322,1987.776,2693.315,1939.681,2670.549,1987.965z"/>
			
				<linearGradient id="SVGID_00000144298165697740044270000009075747474617634201_" gradientUnits="userSpaceOnUse" x1="3056.8481" y1="1463.4857" x2="2932.3394" y2="1668.7572">
				<stop  offset="0" style="stop-color:#09005D"/>
				<stop  offset="1" style="stop-color:#1A0F91"/>
			</linearGradient>
			<path style="fill:url(#SVGID_00000144298165697740044270000009075747474617634201_);" d="M2759.391,1923.506
				c-18.918-10.412-38.665-13.299-56.964-10.619c-13.867,1.958-26.91,7.114-38.2,14.59c-11.494,7.526-20.659,17.421-27.463,28.815
				c-2.222,4.607-3.791,9.484-4.798,14.598c-3.781,19.22,1.333,39.119,13.892,54.152c9.397,11.248,18.876,20.552,18.876,20.552
				l1.637-11.819c0-14.795,11.642-30.783,26.076-35.371c14.433-4.587,29.678-0.979,40.657,9.384
				c14.228,13.451,22.004,31.494,22.004,31.494l4.714-1.393c0,0-0.375-22.99,14.213-17.629
				c14.537,5.413,20.482,35.774,20.482,35.774s30.913,14.175,33.799-27.165C2831.206,1987.578,2813.001,1952.888,2759.391,1923.506z
				"/>
			
				<linearGradient id="SVGID_00000073708968735659498640000013938813381970681237_" gradientUnits="userSpaceOnUse" x1="3043.9939" y1="794.0823" x2="3230.0874" y2="920.4853" gradientTransform="matrix(0.723 -0.6909 0.6909 0.723 -95.1001 3572.7656)">
				<stop  offset="0" style="stop-color:#FEBBBA"/>
				<stop  offset="1" style="stop-color:#FF928E"/>
			</linearGradient>
			<path style="fill:url(#SVGID_00000073708968735659498640000013938813381970681237_);" d="M2766.925,2037.89
				c0,0-18.263-40.273,7.319-41.729c25.582-1.456,15.174,38.823,10.075,53.519L2766.925,2037.89z"/>
			<path style="fill:#BDD0FB;" d="M2652.978,2021.624c-0.25,0-0.5-0.109-0.672-0.316c-0.347-0.422-34.316-42.519,0.083-74.124
				c0.355-0.32,0.905-0.299,1.229,0.054c0.325,0.354,0.303,0.905-0.053,1.231c-33.197,30.5-0.253,71.322,0.083,71.73
				c0.306,0.371,0.253,0.922-0.119,1.228C2653.369,2021.559,2653.173,2021.624,2652.978,2021.624z"/>
			<g>
				<g>
					
						<linearGradient id="SVGID_00000052826898290353200670000012350484844551002282_" gradientUnits="userSpaceOnUse" x1="2603.5796" y1="2549.2119" x2="2747.2808" y2="1843.4783">
						<stop  offset="0" style="stop-color:#09005D"/>
						<stop  offset="1" style="stop-color:#1A0F91"/>
					</linearGradient>
					
						<ellipse style="fill:url(#SVGID_00000052826898290353200670000012350484844551002282_);" cx="2630.949" cy="2414.797" rx="149.646" ry="156.762"/>
					
						<linearGradient id="SVGID_00000007390319972437480720000006948886045658892964_" gradientUnits="userSpaceOnUse" x1="2598.0298" y1="2548.082" x2="2741.7305" y2="1842.3499">
						<stop  offset="0" style="stop-color:#09005D"/>
						<stop  offset="1" style="stop-color:#1A0F91"/>
					</linearGradient>
					
						<ellipse style="fill:url(#SVGID_00000007390319972437480720000006948886045658892964_);" cx="2624.935" cy="2415.947" rx="141.113" ry="147.823"/>
					<g>
						<g>
							
								<linearGradient id="SVGID_00000106866590955046832640000016531803183762882723_" gradientUnits="userSpaceOnUse" x1="2646.2493" y1="2557.9004" x2="2789.9502" y2="1852.1667">
								<stop  offset="0" style="stop-color:#FF928E"/>
								<stop  offset="1" style="stop-color:#FE7062"/>
							</linearGradient>
							<path style="fill:url(#SVGID_00000106866590955046832640000016531803183762882723_);" d="M2601.785,2502.385
								c-1.831,0-3.579-1.057-4.376-2.835c-1.078-2.414,0.005-5.249,2.418-6.329c49.687-22.215,98.755-62.888,134.624-111.598
								c1.567-2.128,4.573-2.577,6.696-1.02c2.131,1.572,2.587,4.57,1.017,6.699c-36.821,50.001-87.275,91.797-138.427,114.666
								C2603.102,2502.254,2602.44,2502.385,2601.785,2502.385z"/>
							
								<linearGradient id="SVGID_00000000180968350921705670000005070130455720908431_" gradientUnits="userSpaceOnUse" x1="2627.9771" y1="2554.1799" x2="2771.6782" y2="1848.4464">
								<stop  offset="0" style="stop-color:#FF928E"/>
								<stop  offset="1" style="stop-color:#FE7062"/>
							</linearGradient>
							<path style="fill:url(#SVGID_00000000180968350921705670000005070130455720908431_);" d="M2595.37,2480.881
								c-1.714,0-3.37-0.921-4.233-2.54c-1.242-2.334-0.358-5.234,1.976-6.479c43.737-23.295,85.119-59.609,116.523-102.256
								c1.567-2.128,4.568-2.577,6.696-1.02c2.131,1.572,2.587,4.57,1.017,6.698c-32.702,44.411-74.105,80.734-119.732,105.035
								C2596.899,2480.699,2596.13,2480.881,2595.37,2480.881z"/>
							
								<linearGradient id="SVGID_00000032609797167660697600000001495523830308948358_" gradientUnits="userSpaceOnUse" x1="2611.4175" y1="2550.8081" x2="2755.1184" y2="1845.0748">
								<stop  offset="0" style="stop-color:#FF928E"/>
								<stop  offset="1" style="stop-color:#FE7062"/>
							</linearGradient>
							<path style="fill:url(#SVGID_00000032609797167660697600000001495523830308948358_);" d="M2589.356,2462.558
								c-1.609,0-3.178-0.809-4.084-2.278c-1.387-2.255-0.685-5.202,1.567-6.591c37.895-23.337,72.391-55.315,99.756-92.47
								c1.57-2.128,4.573-2.577,6.696-1.02c2.131,1.572,2.587,4.57,1.017,6.698c-28.088,38.138-63.512,70.971-102.446,94.95
								C2591.08,2462.329,2590.212,2462.558,2589.356,2462.558z"/>
							
								<linearGradient id="SVGID_00000133529002534750326080000004391332287379330483_" gradientUnits="userSpaceOnUse" x1="2594.6055" y1="2547.385" x2="2738.3066" y2="1841.6515">
								<stop  offset="0" style="stop-color:#FF928E"/>
								<stop  offset="1" style="stop-color:#FE7062"/>
							</linearGradient>
							<path style="fill:url(#SVGID_00000133529002534750326080000004391332287379330483_);" d="M2583.042,2440.825
								c-1.502,0-2.977-0.702-3.913-2.021c-1.53-2.156-1.02-5.146,1.137-6.675c37.31-26.458,63.094-50.674,83.604-78.526
								c1.567-2.128,4.573-2.578,6.696-1.02c2.131,1.572,2.587,4.57,1.018,6.698c-21.144,28.712-47.596,53.589-85.774,80.659
								C2584.966,2440.54,2583.998,2440.825,2583.042,2440.825z"/>
							
								<linearGradient id="SVGID_00000132801334195191281690000007047789856194218644_" gradientUnits="userSpaceOnUse" x1="2573.8176" y1="2543.1516" x2="2717.5188" y2="1837.4183">
								<stop  offset="0" style="stop-color:#FF928E"/>
								<stop  offset="1" style="stop-color:#FE7062"/>
							</linearGradient>
							<path style="fill:url(#SVGID_00000132801334195191281690000007047789856194218644_);" d="M2577.763,2412.88
								c-1.35,0-2.692-0.566-3.639-1.67c-1.721-2.011-1.49-5.033,0.519-6.755c2.849-2.442,5.686-4.851,8.509-7.241
								c18.012-15.264,35.022-29.676,49.57-49.435c1.57-2.133,4.57-2.582,6.696-1.02c2.131,1.572,2.587,4.57,1.018,6.698
								c-15.212,20.662-32.639,35.429-51.091,51.063c-2.809,2.381-5.632,4.776-8.467,7.204
								C2579.975,2412.501,2578.866,2412.88,2577.763,2412.88z"/>
							
								<linearGradient id="SVGID_00000091695285475335846950000002969836723353004223_" gradientUnits="userSpaceOnUse" x1="2667.8877" y1="2562.3064" x2="2811.5889" y2="1856.5734">
								<stop  offset="0" style="stop-color:#FF928E"/>
								<stop  offset="1" style="stop-color:#FE7062"/>
							</linearGradient>
							<path style="fill:url(#SVGID_00000091695285475335846950000002969836723353004223_);" d="M2614.352,2526.293
								c-1.892,0-3.681-1.127-4.439-2.984c-0.997-2.451,0.18-5.244,2.631-6.24c53.472-21.771,108.153-66.439,146.272-119.489
								c1.544-2.142,4.538-2.634,6.685-1.095c2.149,1.544,2.638,4.538,1.095,6.689c-39.127,54.449-95.366,100.343-150.44,122.764
								C2615.564,2526.181,2614.953,2526.293,2614.352,2526.293z"/>
							
								<linearGradient id="SVGID_00000106832182306213968260000010187718330965003154_" gradientUnits="userSpaceOnUse" x1="2686.7307" y1="2566.1433" x2="2830.4319" y2="1860.41">
								<stop  offset="0" style="stop-color:#FF928E"/>
								<stop  offset="1" style="stop-color:#FE7062"/>
							</linearGradient>
							<path style="fill:url(#SVGID_00000106832182306213968260000010187718330965003154_);" d="M2629.384,2553.293
								c-1.801,0-3.525-1.02-4.341-2.76c-1.12-2.395-0.089-5.244,2.306-6.366c54.543-25.555,110.819-75.64,146.868-130.716
								c1.45-2.213,4.421-2.83,6.633-1.385c2.213,1.45,2.833,4.42,1.385,6.633c-36.971,56.475-94.76,107.874-150.821,134.14
								C2630.757,2553.148,2630.065,2553.293,2629.384,2553.293z"/>
							
								<linearGradient id="SVGID_00000124151298115906647910000004513307604051560093_" gradientUnits="userSpaceOnUse" x1="2694.3799" y1="2567.7009" x2="2838.0811" y2="1861.9674">
								<stop  offset="0" style="stop-color:#FF928E"/>
								<stop  offset="1" style="stop-color:#FE7062"/>
							</linearGradient>
							<path style="fill:url(#SVGID_00000124151298115906647910000004513307604051560093_);" d="M2638.307,2567.78
								c-1.796,0-3.518-1.015-4.334-2.746c-1.13-2.395-0.105-5.249,2.287-6.376c34.669-16.349,98.177-51.825,133.997-105.755
								c1.459-2.203,4.437-2.811,6.64-1.338c2.203,1.464,2.804,4.439,1.34,6.643c-37.106,55.862-102.319,92.339-137.889,109.114
								C2639.687,2567.635,2638.992,2567.78,2638.307,2567.78z"/>
						</g>
						<g>
							
								<linearGradient id="SVGID_00000056392931702392457390000015103914822234808488_" gradientUnits="userSpaceOnUse" x1="2603.7012" y1="2549.2366" x2="2747.4021" y2="1843.5042">
								<stop  offset="0" style="stop-color:#FF928E"/>
								<stop  offset="1" style="stop-color:#FE7062"/>
							</linearGradient>
							<path style="fill:url(#SVGID_00000056392931702392457390000015103914822234808488_);" d="M2780.193,2421.534
								c-1.314,0-2.622-0.538-3.569-1.59c-54.265-60.531-180.918-85.894-282.327-56.536c-2.529,0.716-5.197-0.73-5.932-3.27
								c-0.737-2.545,0.728-5.197,3.27-5.936c104.598-30.265,235.641-3.649,292.123,59.342c1.766,1.969,1.6,5-0.369,6.764
								C2782.474,2421.132,2781.333,2421.534,2780.193,2421.534z"/>
							
								<linearGradient id="SVGID_00000047781156448758307490000009073644655238016431_" gradientUnits="userSpaceOnUse" x1="2604.3296" y1="2549.365" x2="2748.0313" y2="1843.629">
								<stop  offset="0" style="stop-color:#FF928E"/>
								<stop  offset="1" style="stop-color:#FE7062"/>
							</linearGradient>
							<path style="fill:url(#SVGID_00000047781156448758307490000009073644655238016431_);" d="M2776.744,2388.182
								c-1.27,0-2.538-0.5-3.478-1.497c-52.216-55.165-164.272-79.939-260.669-57.602c-2.561,0.599-5.15-1.015-5.747-3.588
								c-0.596-2.577,1.008-5.15,3.585-5.749c99.438-23.019,215.423,2.924,269.786,60.353c1.82,1.923,1.736,4.954-0.185,6.773
								C2779.111,2387.747,2777.927,2388.182,2776.744,2388.182z"/>
							
								<linearGradient id="SVGID_00000111887312511332256020000008002514679455075747_" gradientUnits="userSpaceOnUse" x1="2596.8577" y1="2547.843" x2="2740.5588" y2="1842.1102">
								<stop  offset="0" style="stop-color:#FF928E"/>
								<stop  offset="1" style="stop-color:#FE7062"/>
							</linearGradient>
							<path style="fill:url(#SVGID_00000111887312511332256020000008002514679455075747_);" d="M2755.015,2335.126
								c-0.823,0-1.658-0.21-2.418-0.659c-61.37-35.996-142.771-47.83-217.758-31.645c-2.594,0.575-5.136-1.09-5.693-3.672
								c-0.559-2.587,1.085-5.136,3.672-5.693c77.265-16.676,161.24-4.434,224.625,32.749c2.283,1.338,3.047,4.271,1.71,6.553
								C2758.259,2334.28,2756.659,2335.126,2755.015,2335.126z"/>
							
								<linearGradient id="SVGID_00000042737252491260781710000008490637093171326128_" gradientUnits="userSpaceOnUse" x1="2595.8828" y1="2547.6448" x2="2739.5837" y2="1841.9116">
								<stop  offset="0" style="stop-color:#FF928E"/>
								<stop  offset="1" style="stop-color:#FE7062"/>
							</linearGradient>
							<path style="fill:url(#SVGID_00000042737252491260781710000008490637093171326128_);" d="M2728.298,2301.54
								c-0.617,0-1.247-0.122-1.852-0.374c-49.334-20.737-101.66-28.511-155.555-23.08c-2.638,0.206-4.982-1.656-5.246-4.29
								c-0.264-2.629,1.656-4.977,4.287-5.244c55.488-5.571,109.399,2.418,160.223,23.782c2.439,1.024,3.585,3.831,2.561,6.273
								C2731.947,2300.436,2730.169,2301.54,2728.298,2301.54z"/>
						</g>
						<g>
							
								<linearGradient id="SVGID_00000016067940946954205500000002730562697558838695_" gradientUnits="userSpaceOnUse" x1="2589.2659" y1="2546.2976" x2="2732.967" y2="1840.5641">
								<stop  offset="0" style="stop-color:#FF928E"/>
								<stop  offset="1" style="stop-color:#FE7062"/>
							</linearGradient>
							<path style="fill:url(#SVGID_00000016067940946954205500000002730562697558838695_);" d="M2641.631,2572.823
								c-1.474,0-2.928-0.678-3.866-1.955c-45.288-61.719-71.275-145.409-69.512-223.874c0.061-2.648,2.231-4.767,4.895-4.683
								c2.645,0.061,4.741,2.255,4.68,4.898c-1.714,76.426,23.578,157.917,67.659,217.989c1.565,2.133,1.106,5.132-1.027,6.699
								C2643.607,2572.523,2642.613,2572.823,2641.631,2572.823z"/>
							
								<linearGradient id="SVGID_00000026125606118442482040000007839657090854064032_" gradientUnits="userSpaceOnUse" x1="2560.3477" y1="2540.4092" x2="2704.0486" y2="1834.6769">
								<stop  offset="0" style="stop-color:#FF928E"/>
								<stop  offset="1" style="stop-color:#FE7062"/>
							</linearGradient>
							<path style="fill:url(#SVGID_00000026125606118442482040000007839657090854064032_);" d="M2607.174,2571.831
								c-1.558,0-3.087-0.758-4.007-2.156c-42.343-64.375-65.054-147.2-60.748-221.558c0.152-2.643,2.439-4.659,5.059-4.505
								c2.643,0.15,4.659,2.418,4.507,5.057c-4.194,72.375,17.932,153.029,59.186,215.739c1.455,2.212,0.84,5.183-1.368,6.638
								C2608.991,2571.579,2608.077,2571.831,2607.174,2571.831z"/>
							
								<linearGradient id="SVGID_00000066480923763368415160000009938160599908772509_" gradientUnits="userSpaceOnUse" x1="2530.8652" y1="2534.406" x2="2674.5664" y2="1828.6725">
								<stop  offset="0" style="stop-color:#FF928E"/>
								<stop  offset="1" style="stop-color:#FE7062"/>
							</linearGradient>
							<path style="fill:url(#SVGID_00000066480923763368415160000009938160599908772509_);" d="M2576.481,2562.99
								c-1.581,0-3.13-0.781-4.044-2.213c-37.357-58.58-60.29-138.271-59.845-207.974c0.016-2.643,2.156-4.668,4.82-4.757
								c2.646,0.019,4.776,2.175,4.76,4.823c-0.433,67.954,21.922,145.647,58.344,202.754c1.422,2.231,0.767,5.192-1.464,6.614
								C2578.254,2562.747,2577.363,2562.99,2576.481,2562.99z"/>
							
								<linearGradient id="SVGID_00000010285459273250565230000004462555316306522034_" gradientUnits="userSpaceOnUse" x1="2507.8286" y1="2529.7153" x2="2651.5298" y2="1823.9818">
								<stop  offset="0" style="stop-color:#FF928E"/>
								<stop  offset="1" style="stop-color:#FE7062"/>
							</linearGradient>
							<path style="fill:url(#SVGID_00000010285459273250565230000004462555316306522034_);" d="M2546.74,2548.424
								c-1.572,0-3.113-0.772-4.028-2.194c-33.848-52.415-46.156-131.736-46.389-188.496c-0.012-2.643,2.126-4.799,4.771-4.809
								h0.019c2.636,0,4.778,2.133,4.79,4.771c0.227,55.404,12.129,132.657,44.855,183.341c1.436,2.222,0.798,5.183-1.424,6.619
								C2548.531,2548.176,2547.628,2548.424,2546.74,2548.424z"/>
						</g>
					</g>
				</g>
			</g>
			
				<linearGradient id="SVGID_00000059307520283098691230000011564712484665296544_" gradientUnits="userSpaceOnUse" x1="2515.3928" y1="2497.8755" x2="2937.6162" y2="2497.8755" gradientTransform="matrix(1 0 0 1 425.7308 0)">
				<stop  offset="0" style="stop-color:#FEBBBA"/>
				<stop  offset="1" style="stop-color:#FF928E"/>
			</linearGradient>
			<path style="fill:url(#SVGID_00000059307520283098691230000011564712484665296544_);" d="M2677.961,2540.173l59.602-64.848
				l68.833,18.535c0,0,80.249,12.434,126.179,0c45.93-12.433,45.93-12.433,45.93-12.433l103.791-32.313l16.302,46.069
				c4.138,11.696-0.021,24.682-10.134,31.868c-8.979,6.381-19.505,13.393-26.214,16.328c-13.668,5.98-314.865,1.891-314.865,1.891
				L2677.961,2540.173z"/>
			
				<linearGradient id="SVGID_00000075877321191647848240000009040717894699930241_" gradientUnits="userSpaceOnUse" x1="2126.356" y1="1465.2222" x2="2165.8755" y2="1465.2222" gradientTransform="matrix(0.7416 0.6709 -0.6709 0.7416 1893.5171 -188.1499)">
				<stop  offset="0" style="stop-color:#FEBBBA"/>
				<stop  offset="1" style="stop-color:#FF928E"/>
			</linearGradient>
			<path style="fill:url(#SVGID_00000075877321191647848240000009040717894699930241_);" d="M2500.46,2310.812
				c0,0,35.986-7.334,30.616-0.15c-5.37,7.184-18.908,20.902-18.908,20.902s0.671,5.498-3.762,19.55s-16.075,31.848-22.31,28.79
				S2484.183,2325.062,2500.46,2310.812z"/>
		</g>
		<g>
			
				<linearGradient id="SVGID_00000016778247499567957530000016507973140983714718_" gradientUnits="userSpaceOnUse" x1="-223.4602" y1="1367.8358" x2="-718.1056" y2="4138.8481" gradientTransform="matrix(-1 0 0 1 1596.9999 0)">
				<stop  offset="0" style="stop-color:#FF928E"/>
				<stop  offset="1" style="stop-color:#FE7062"/>
			</linearGradient>
			<path style="fill:url(#SVGID_00000016778247499567957530000016507973140983714718_);" d="M1434.197,2504.957l76.759-356.127
				c13.422-78.881-13.099-160.798-70.973-219.873h0c-31.773-32.432-51.705-73.977-56.157-117.945
				c-6.941-68.553-6.107-180.172,39.793-316.673c61.624-183.259,252.78-300.592,457.997-277.695
				c104.529,11.663,228.431,39.894,361.158,99.367c77.539,34.744,131.225,103.68,139.765,183.382
				c3.977,37.114,11.351,78.262,24.776,114.92c16.934,46.239,24.291,77.943,27.332,98.52c2.76,18.674-5.254,37.151-20.975,49.11
				l-0.002,0.002c-16.15,12.286-20.154,33.424-9.55,50.371l118.832,189.916v6.053c0,18.749-16.126,33.689-36.824,34.164
				l-71.641,1.644l2.698,66.212c0.521,12.794-8.718,23.801-22.277,26.561l-16.204,3.298l14.785,11.421
				c12.055,9.312,15.226,24.931,7.441,36.679l-20.89,31.527c-9.427,14.227-8.078,32.738,3.412,46.791l0,0
				c19.064,23.317,22.964,53.612,10.102,78.568l-5.833,11.317c-26.927,52.242-90.512,78.205-153.398,62.881
				c-70.588-17.201-159.993-42.684-220.718-73.324c-17.172-8.664-36.896,1.974-36.896,19.71v180.512L1434.197,2504.957z"/>
			
				<linearGradient id="SVGID_00000127041501908490602880000004401102270416347540_" gradientUnits="userSpaceOnUse" x1="1910.7318" y1="901.2266" x2="1964.5745" y2="-458.2733">
				<stop  offset="0" style="stop-color:#FEBBBA"/>
				<stop  offset="1" style="stop-color:#FF928E"/>
			</linearGradient>
			<path style="fill:url(#SVGID_00000127041501908490602880000004401102270416347540_);" d="M2111.064,1701.018
				c56.01-12.018,72.912,10.276,118.345-6.578c54.742-20.306,95.598-75.044,102.451-129.812
				c9.741-77.848-51.552-135.62-93.603-175.255c-96.403-90.865-213.63-111.804-247.782-117.461
				c-46.402-7.688-244.563-34.079-401.695,96.629c-109.037,90.7-135.654,205.234-143.052,239.387
				c-10.77,49.723-44.379,204.882,43.377,265.714c52.005,36.05,135.56,31.736,188.666,1.208c39.131-22.494,31.04-38.664,69.6-60.91
				c76.96-44.4,130.761,11.635,221.796-23.035C2041.922,1763.196,2035.211,1717.293,2111.064,1701.018z"/>
			
				<linearGradient id="SVGID_00000179622354108919499660000004960712887858733999_" gradientUnits="userSpaceOnUse" x1="1509.8778" y1="2030.7457" x2="2683.0117" y2="2030.7457">
				<stop  offset="0" style="stop-color:#E1473D"/>
				<stop  offset="1" style="stop-color:#E9605A"/>
			</linearGradient>
			<path style="fill:url(#SVGID_00000179622354108919499660000004960712887858733999_);" d="M2126.1,2713.391
				c-103.122,0-195.438-23.099-275.07-68.912c-96.839-55.715-154.469-133.769-185.76-189.438
				c-35.212-62.645-57.213-133.085-58.846-188.432c-1.932-65.34-26.967-114.719-49.057-158.284
				c-27.492-54.223-51.235-101.048-26.158-162.172c1.364-3.323,3.539-8.304,6.254-14.528
				c15.974-36.589,53.378-122.267,47.614-154.052c-2.981-16.418-12.12-25.14-13.316-26.221c-3.914-2.678-8.689-4.197-13.736-5.804
				c-2.925-0.93-5.951-1.893-8.916-3.122c-29.839-12.389-42.051-46.934-38.689-74.653c3.079-25.386,17-50.559,41.374-74.827
				c7.286-7.246,15.475-14.285,25.994-16.677c3.569-0.808,7.266-1.016,11.025-0.651c1.223-0.772,2.461-1.528,3.723-2.281
				c-3.109-5.156-5.744-10.624-7.742-16.49c-10.233-30.062-2.425-64.995,23.874-106.792c12.067-19.175,55.8-80.723,112.241-67.285
				c4.847,1.15,9.415,2.81,13.704,4.887c5.731-3.865,11.936-7.558,18.6-11.068c84.666-44.588,193.013-36.224,269.612,20.802
				c3.71,2.764,7.138,7.443,8.843,12.31c16.04-7.378,38.002-6.306,66.589,3.125c33.447,11.038,79.579,30.476,93.986,71.666
				c5.751,16.444,6.083,35.659,0.983,57.105c-6.917,29.086-21.814,51.318-41.942,62.599c-18.229,10.224-45.097,10.066-62.277-3.674
				c-2.281,35.291-27.223,68.873-62.452,81.666c-26.546,9.642-57.607,7.151-84.459-5.573c-13.907,40.67-46.158,72.734-84.032,82.829
				c-6.799,1.811-12.843,2.435-18.475,1.936c-21.561-1.949-36.165-17.785-43.398-47.072c-0.72-2.905-2.889-5.054-5.803-5.748
				c-2.931-0.7-5.846,0.25-7.808,2.53c-2.547,2.967-6.375,4.328-10.237,3.667c-3.822-0.667-6.927-3.22-8.301-6.829
				c-4.565-11.978-7.742-24.427-9.533-37.039c-10.664-0.306-21.466-2.843-31.699-7.384c-0.989,0.805-1.988,1.607-2.997,2.402
				c-1.889,16.701-6.743,34.637-14.587,54.049c-11.078,27.407-27.466,41.032-46.135,38.399c-5.882-0.835-11.285-3.326-15.777-6.993
				c-16.533,1.469-33.45-0.217-49.237-5.031c-10.365-3.158-15.074-8.892-14.003-17.036c0.329-2.465,1.229-4.87,2.678-7.161
				c3.825-6.063,8.36-11.4,13.342-16.237c-9.527,1.627-18.948,0.546-27.332-3.266c-27.167-12.353-35.209-47.121-27.082-72.248
				c3.96-12.244,11.269-23.841,21.597-34.433c-1.492,1.344-2.941,2.741-4.361,4.154c-22.728,22.626-35.672,45.803-38.472,68.886
				c-3.332,27.466,10.657,55.028,32.537,64.111c2.563,1.065,5.258,1.922,8.107,2.829c5.633,1.794,11.459,3.648,16.674,7.299
				l0.319,0.243c0.532,0.437,13.063,10.996,16.927,32.3c6.316,34.808-30.568,119.29-48.291,159.891
				c-2.678,6.135-4.824,11.048-6.168,14.321c-23.322,56.848-0.549,101.764,25.823,153.772
				c22.566,44.512,48.146,94.959,50.141,162.557c1.591,53.789,23.109,122.494,57.558,183.782
				c30.67,54.564,87.144,131.061,181.994,185.632c140.631,80.907,396.956,129.244,819.493-99.99
				c2.438-1.324,5.514-0.421,6.842,2.031c1.331,2.448,0.421,5.514-2.031,6.842c-183.306,99.451-351.376,155.531-499.539,166.684
				C2162.275,2712.691,2144.017,2713.391,2126.1,2713.391z M1788.526,1698.243c1.393,0,2.8,0.161,4.196,0.493
				c6.566,1.561,11.65,6.602,13.267,13.151c6.175,24.995,17.463,37.894,34.505,39.435c4.459,0.407,9.336-0.135,14.969-1.633
				c35.133-9.366,65.041-39.583,77.585-77.847c-7.023-4.095-13.661-8.939-19.734-14.482c-1.245-1.137-2.468-2.3-3.667-3.49
				c-14.252-1.725-29.602-5.619-46.194-11.696c-10.513-3.848-20.164-8.166-28.919-12.918c-2.087-0.289-4.167-0.651-6.244-1.081
				c1.821,10.956,2.024,22.172,0.47,33.171l-0.904,6.395l-5.988-2.422c-7.604-3.076-15.452-5.547-23.457-7.42
				c-7.756,5.222-16.474,9.218-26.247,11.367c-2.478,0.546-4.988,0.953-7.519,1.229c1.712,11.521,4.653,22.885,8.827,33.838
				c0.039,0.099,0.154,0.401,0.605,0.48c0.24,0.033,0.575,0.023,0.841-0.296C1778.388,1700.475,1783.357,1698.243,1788.526,1698.243
				z M1661.382,1748.467c6.77,0.674,12.583-1.778,17.555-6.001c-3.723,1.831-7.864,3.398-12.383,4.667
				C1664.843,1747.612,1663.117,1748.059,1661.382,1748.467z M1613.587,1704.145c-8.725,6.701-16.451,14.111-22.304,23.381
				c-0.657,1.038-1.075,2.106-1.203,3.092c-0.21,1.594-0.5,3.789,6.937,6.057c12.254,3.733,25.271,5.429,38.14,5.057
				c-2.56-4.449-4.2-9.533-4.64-14.936c-0.362-4.446-0.141-8.807,0.654-13.066c-2.705,1.032-5.449,2.054-8.232,3.066l-4.933,1.791
				l-1.6-4.998C1615.408,1710.465,1614.465,1707.313,1613.587,1704.145z M1642.835,1709.121c-1.972,5.406-2.728,11.032-2.254,16.858
				c0.463,5.698,2.767,10.891,6.27,14.857c5.751-0.726,11.433-1.867,16.973-3.424c7.217-2.024,24.269-8.173,26.799-21.531
				c1.075-5.698-0.743-12.005-2.869-17.969c-1.032-2.898-2.139-5.774-3.319-8.623
				C1671.845,1696.308,1658.024,1702.89,1642.835,1709.121z M1622.339,1697.819c0.67,2.563,1.38,5.117,2.13,7.654
				c3.667-1.374,7.259-2.764,10.776-4.17c6.089-12.78,17.798-24.367,34.795-34.252c0.848-0.493,1.702-0.979,2.56-1.459
				c-0.578-0.979-1.167-1.952-1.761-2.922c-0.082,0.082-0.164,0.164-0.246,0.246c-10.473,10.306-22.958,18.38-35.035,26.188
				C1631.057,1692.013,1626.62,1694.881,1622.339,1697.819z M1693.242,1684.182c1.439,3.414,2.783,6.862,4.022,10.339
				c1.167,3.273,2.251,6.661,2.954,10.125c3.71-10.575,6.425-20.647,8.15-30.256
				C1703.551,1677.744,1698.51,1681.01,1693.242,1684.182z M1591.116,1586.153c-15.803,10.5-32.99,26.175-39.836,47.338
				c-6.822,21.091,0.253,50.217,21.659,59.951c9.142,4.157,20.007,4.124,30.591-0.102c2.281-0.907,4.482-1.985,6.589-3.217
				c-6.845-31.469-7.87-64.466-3.007-96.309C1601.885,1589.88,1596.423,1587.274,1591.116,1586.153z M1677.498,1674.418
				c-0.802,0.447-1.594,0.9-2.386,1.36c-9.895,5.754-17.69,11.945-23.359,18.541c10.194-4.565,19.694-9.317,28.547-14.289
				C1679.397,1678.145,1678.464,1676.275,1677.498,1674.418z M1616.137,1602.217c-3.359,26.964-2.373,54.633,2.911,81.268
				c4.89-4.561,8.771-10.033,11.18-15.968C1638.546,1647.024,1632.871,1621.05,1616.137,1602.217z M1945.033,1666.85
				c24.752,12.176,53.565,14.742,78.077,5.846c35.064-12.734,59.461-50.144,55.544-85.169l-1.255-11.196
				c-10.759-0.427-21.482-4.611-29.777-10.424c-5.258-3.684-9.915-7.979-14.216-12.586c-7.424,39.934-30.365,80.762-71.334,95.563
				c-4.548,1.643-9.241,2.948-14.078,3.921C1947.221,1657.56,1946.235,1662.246,1945.033,1666.85z M1640.534,1625.089
				c4.92,15.534,4.834,31.965-0.953,46.224c-0.615,1.518-1.311,3.013-2.077,4.479c9.218-6.079,18.327-12.517,26.001-20.072
				c0.572-0.559,1.13-1.127,1.686-1.702c-5.347-7.723-11.259-15.041-17.664-21.834
				C1645.276,1629.798,1642.93,1627.432,1640.534,1625.089z M1686.463,1669.785c0.887,1.702,1.745,3.414,2.583,5.136
				c7.466-4.545,14.44-9.267,20.956-14.197C1701.928,1663.146,1694.051,1666.167,1686.463,1669.785z M1926.015,1654.898
				c3.171,2.491,6.471,4.791,9.878,6.898c0.595-2.455,1.121-4.936,1.584-7.437
				C1933.745,1654.72,1929.975,1655.026,1926.015,1654.898z M1677.899,1654.921c1.259,1.985,2.484,3.993,3.671,6.017
				c7.154-3.441,14.551-6.379,22.129-8.814c-3.04-2.333-5.968-4.867-8.758-7.598c-2.011-1.969-3.957-4.032-5.833-6.191
				C1685.904,1644.185,1682.161,1649.745,1677.899,1654.921z M1731.389,1656.13c7.203,2.688,14.627,4.262,21.978,4.624
				c-0.197-2.379-0.345-4.768-0.447-7.151c-7.059,0.276-14.098,0.979-21.068,2.107
				C1731.701,1655.848,1731.543,1655.989,1731.389,1656.13z M1763.015,1653.505c0.102,2.323,0.253,4.643,0.453,6.964
				c2.198-0.237,4.377-0.588,6.526-1.061c4.571-1.006,8.896-2.488,12.974-4.361
				C1776.364,1654.145,1769.693,1653.63,1763.015,1653.505z M1808.414,1650.061c3.72,1.052,7.397,2.228,11.032,3.533
				c0.368-5.005,0.352-10.039-0.039-15.041C1816.035,1642.621,1812.378,1646.495,1808.414,1650.061z M1702.591,1590.297
				c6.461,8.899,11.456,19.152,14.38,30.243c2.281,8.64,3.52,17.631,3.72,27.029c2.152-0.467,4.308-0.894,6.477-1.282
				c5.153-4.831,9.961-9.849,14.44-15.064c5.501-6.408,10.424-13.151,14.735-20.125c1.913-9.238,4.581-18.308,8.018-27.092
				c-10.513-15.057-18.498-33.155-23.496-53.464c-9.767,0.322-19.941-2.399-28.827-8.009c-15.291-9.658-23.635-24.137-26.576-39.793
				c-1.318,1.39-2.55,2.839-3.69,4.344c-7.532,9.941-11.844,21.16-14.091,32.33c16.477,4.732,26.819,21.896,31.144,37.335
				C1701.898,1567.714,1703.111,1579.058,1702.591,1590.297z M1762.877,1643.426c11.206,0.191,22.386,1.406,33.322,3.657
				c8.097-6.112,15.002-13.772,20.831-21.968c-9.083-3.063-17.844-7.519-25.849-13.362c-5.758-4.206-11.14-9.03-16.122-14.42
				c-2.672,5.945-5.731,11.788-9.172,17.493C1764.047,1624.234,1763.042,1633.817,1762.877,1643.426z M1618.053,1589.522
				c5.54,5.784,11.561,11.4,17.7,17.124c6.415,5.984,13.046,12.169,19.119,18.61c6.149,6.523,11.87,13.506,17.098,20.851
				c3.94-5.159,7.354-10.739,10.204-16.612c-11.163-15.767-19.228-35.36-23.631-57.663c-0.174-0.887-0.348-1.807-0.519-2.76
				c-4.834-1.416-9.901-2.192-15.166-2.192c0,0-0.043,0-0.062,0c-6.569,0.007-13.332,1.153-20.562,3.533
				c-0.013,0.056-0.029,0.115-0.046,0.174C1620.561,1576.824,1619.184,1583.146,1618.053,1589.522z M1914.329,1644.221
				c8.695,0.832,16.914,0.766,24.676-0.191c3.01-26.888-1.117-55.915-12.097-84.206c-3.605,18.57-11.719,38.626-28.909,53.082
				c-1.209,1.015-2.452,1.985-3.727,2.912C1899.663,1626.281,1906.393,1635.864,1914.329,1644.221z M1693.939,1628.358
				c2.537,3.191,5.228,6.181,8.061,8.952c2.698,2.639,5.534,5.074,8.482,7.295c-0.365-7.453-1.456-14.607-3.27-21.489
				c-1.472-5.583-3.69-11.236-6.566-16.697C1699.174,1613.938,1696.923,1621.3,1693.939,1628.358z M1753.272,1632.962
				c-1.301,1.63-2.636,3.247-4.006,4.841c-1.831,2.13-3.714,4.233-5.646,6.3c3.05-0.266,6.109-0.46,9.169-0.575
				C1752.841,1640.001,1753.002,1636.479,1753.272,1632.962z M1929.255,1540.738c1.351,2.284,2.524,4.565,3.49,6.773
				c13.773,31.459,19.425,64.223,16.595,94.66c3.178-0.762,6.277-1.689,9.3-2.783c39.967-14.436,61.078-56.73,66.152-96.125
				c-2.192-2.737-4.325-5.508-6.438-8.255c-1.959-2.54-3.911-5.077-5.899-7.571c-25.452-31.955-55.511-54.38-86.93-64.85
				c-3.7-1.232-7.434-2.291-11.19-3.181c-1.867,1.324-3.674,2.682-5.429,4.068c12.626,14.456,19.51,35.222,20.5,61.942
				C1929.571,1529.864,1929.581,1535.066,1929.255,1540.738z M1858.625,1629.476c2.82,1.157,5.596,2.228,8.298,3.22
				c11.341,4.151,22.037,7.233,32.129,9.247c-5.051-6.454-9.523-13.421-13.372-20.792
				C1877.399,1625.503,1868.204,1628.276,1858.625,1629.476z M1837.899,1619.578c15.386,1.804,30.7-0.69,43.434-7.525
				c-4.407-10.128-7.703-20.881-9.8-32.014c-6.145-4.049-11.857-8.768-17.036-14.026c-1.857,6.05-3.782,12.146-5.84,18.1
				c-3.27,9.468-8.078,21.305-14.768,33.168C1835.22,1618.066,1836.558,1618.832,1837.899,1619.578z M1669.243,1573.689
				c3.72,16.862,9.675,31.912,17.581,44.578c2.79-8.061,4.588-16.48,5.317-24.962
				C1685.874,1585.342,1678.116,1578.441,1669.243,1573.689z M1824.001,1610.899c0.457,0.322,0.914,0.641,1.377,0.96
				c6.191-11.084,10.677-22.179,13.736-31.038c2.678-7.749,5.15-15.813,7.539-23.697c-10.677-13.506-18.163-29.55-21.206-46.428
				c-2.445-13.565-1.423-28.62,4.19-41.015c-2.642,1.502-5.202,3.122-7.663,4.86c-17.078,12.07-29.037,30.174-34.141,49.402
				c1.203,11.623,0.766,23.621-1.232,35.623c0.371,1.742,0.808,3.467,1.318,5.172c7.811,0.48,12.915,6.454,15.468,9.441
				C1812.565,1584.924,1819.532,1597.494,1824.001,1610.899z M1779.315,1586.916c5.396,6.369,11.357,11.962,17.821,16.681
				c2.672,1.952,5.435,3.73,8.271,5.337c-10.23-9.307-18.009-19.612-23.161-30.769
				C1781.359,1581.096,1780.383,1584.011,1779.315,1586.916z M1883.199,1586.213c1.732,6.977,3.98,13.753,6.71,20.256
				c0.539-0.421,1.068-0.851,1.594-1.292c19.589-16.471,25.882-41.755,27.466-61.886c-6.076-9.172-14.614-16.418-21.998-18.14
				c-4.312-1.016-8.009-0.151-11.301,2.622c-3.687,3.106-6.014,8.015-6.379,13.46c-0.749,11.062-0.246,22.021,1.416,32.639
				c1.669,0.989,3.368,1.922,5.097,2.8c2.488,1.262,3.48,4.302,2.218,6.786C1887.083,1585.316,1885.174,1586.324,1883.199,1586.213z
				 M2083.008,1576.203l4.969,8.13c11.739,19.218,40.188,21.245,58.37,11.055c23.799-13.339,33.434-40.891,37.059-56.125
				c4.644-19.54,4.41-36.845-0.693-51.439c-12.935-36.98-56.201-55.041-87.617-65.409c-9.027-2.981-17.272-5.071-24.759-6.267
				c25.215,6.753,45.675,22.389,55.478,42.701c15.915,32.961,2.077,69.816-7.588,88.85c-3.937,7.755-9.06,16.448-17.223,22.116
				C2095.466,1573.662,2089.305,1575.647,2083.008,1576.203z M1793.748,1578.579c3.378,6.155,7.571,11.768,12.333,16.878
				c-2.997-5.209-6.464-10.144-10.371-14.719C1795.02,1579.929,1794.369,1579.213,1793.748,1578.579z M1607.081,1576.827
				c0.818,1.078,1.663,2.146,2.524,3.204c0.348-1.666,0.713-3.323,1.094-4.979C1609.506,1575.615,1608.3,1576.206,1607.081,1576.827
				z M1667.061,1561.71c9.149,3.743,17.749,9.478,25.248,16.73c-0.414-6.425-1.472-12.787-3.204-18.965
				c-3.434-12.258-11.14-25.8-22.935-29.948C1664.99,1541.303,1665.759,1552.572,1667.061,1561.71z M1750.942,1529.226
				c4.213,16.691,10.555,31.719,18.728,44.558c1.357-1.722,2.905-3.24,4.611-4.528c0.808-3.161,1.502-6.339,2.074-9.51
				c-2.189-11.84-1.65-24.269,1.278-36.336c-0.404-3.391-0.963-6.75-1.676-10.059c-2.363,2.997-5.11,5.679-8.235,8.028
				C1762.687,1525.161,1756.965,1527.78,1750.942,1529.226z M1704.921,1390.978c-43.49,0-77.584,48.36-87.709,64.453
				c-24.574,39.057-32.054,71.167-22.862,98.163c1.791,5.261,4.164,10.171,6.99,14.834c4.358-2.264,8.561-4.187,12.639-5.774
				c7.361-23.073,22.889-43.845,43.671-44.489c2.465-12.734,7.345-25.649,16.079-37.177c3.036-4.006,6.579-7.667,10.506-10.914
				c-0.151-13.572,3.283-27.299,9.362-38.958c6.957-13.345,17.506-25.573,31.508-36.553c-2.11-0.779-4.285-1.439-6.53-1.975
				C1713.936,1391.487,1709.377,1390.978,1704.921,1390.978z M2076.86,1566.14c6.503,0.434,12.951-0.838,18.386-4.617
				c6.319-4.39,10.611-11.761,13.976-18.393c8.82-17.371,21.525-50.848,7.502-79.891c-9.274-19.211-29.806-33.687-54.923-38.725
				c-10.358-2.08-20.861-2.55-31.025-2.074c-1.525,2.057-3.838,3.418-6.714,3.874l-16.326,2.599l5.048-4.709
				c-3.201,0.463-6.329,0.986-9.372,1.548c20.647,25.432,32.442,60.424,32.688,97.923c0.036,5.373-0.23,10.9-0.802,16.507
				c5.495,6.622,11.255,12.649,18.114,17.457c6.283,4.4,14.571,7.778,22.843,8.455l-0.131-1.16L2076.86,1566.14z M1857.882,1554.865
				c3.575,4.065,7.489,7.834,11.682,11.239c-0.802-8.4-0.927-16.947-0.348-25.55c0.552-8.163,4.177-15.639,9.951-20.503
				c5.734-4.827,12.682-6.461,20.099-4.732c7.397,1.725,14.321,6.484,20.112,12.445c-0.016-0.674-0.036-1.334-0.059-1.975
				c-0.9-24.334-6.967-43.013-18.061-55.715c-3.52,3.313-6.763,6.789-9.74,10.431
				C1874.356,1501.507,1865.861,1528.516,1857.882,1554.865z M1656.154,1528.372c-14.236,1.551-24.288,16.54-30.007,30.437
				c5.692-1.357,11.199-2.018,16.635-2.024c0.023,0,0.049,0,0.072,0c4.571,0,9.123,0.536,13.605,1.558
				C1655.467,1549.473,1655.059,1539.147,1656.154,1528.372z M1847.606,1461.734c-12.323,10.486-15.366,29.717-12.221,47.174
				c2.323,12.912,7.532,25.281,14.926,36.178c7.713-25.08,16.52-50.325,33.391-70.969c3.138-3.842,6.543-7.506,10.22-11.002
				c-0.207-0.161-0.417-0.325-0.631-0.486c-3.934-2.984-8.17-5.215-12.524-6.655
				C1869.262,1456.328,1858.046,1458.267,1847.606,1461.734z M1925.815,1452.075c0.969,0.299,1.935,0.611,2.905,0.933
				c33.276,11.088,64.962,34.65,91.633,68.137c1.89,2.369,3.746,4.778,5.606,7.19c0.039-1.541,0.056-3.076,0.046-4.594
				c-0.246-37.282-12.534-71.794-33.888-95.685c-0.628,0.141-1.249,0.279-1.866,0.417
				C1964.553,1434.277,1943.176,1442.089,1925.815,1452.075z M1694.777,1474.803c1.433,15.6,8.508,30.263,22.652,39.195
				c6.582,4.157,13.973,6.309,21.239,6.474c-0.279-1.459-0.542-2.928-0.792-4.407c-2.136-12.688-3.897-31.505-0.802-51.18
				c-4.847-0.95-10.02-1.13-15.36-0.473C1712.21,1465.569,1702.772,1469.295,1694.777,1474.803z M1746.794,1468.053
				c-2.55,17.752-0.91,34.771,1.038,46.336c0.283,1.679,0.585,3.342,0.907,4.995c4.65-1.14,9.044-3.168,12.915-6.076
				c4.857-3.651,8.258-8.133,10.572-13.023c-0.194-0.539-0.391-1.071-0.595-1.607c-4.341-11.429-10.135-20.128-17.22-25.856
				C1752.079,1470.935,1749.525,1469.345,1746.794,1468.053z M1783.022,1500.692c0.424,1.334,0.828,2.685,1.203,4.039
				c7.056-15.028,17.949-28.557,31.926-38.432c8.025-5.672,16.977-10.197,26.53-13.533c4.2-3.257,9.182-5.781,15.011-7.328
				c8.028-2.13,16.461-1.936,24.561,0.424c9.948-0.151,19.99,0.729,29.97,2.747c18.784-12.465,42.468-22.047,71.495-28.981
				c-31.38-28.258-80.552-40.46-136.198-33.529c-35.642,4.443-62.133,15.698-78.843,33.49c7.506,11.899,12.567,24.949,15.284,36.681
				C1787.944,1473.443,1787.557,1488.543,1783.022,1500.692z M1748.73,1457.876c4.348,1.781,8.39,4.157,12.024,7.092
				c6.05,4.89,11.255,11.436,15.554,19.537c0.877-9.602-0.595-19.113-2.179-25.955c-2.277-9.813-6.316-20.638-12.189-30.693
				C1755.368,1437.189,1751.218,1447.504,1748.73,1457.876z M1735.296,1399.502c-14.854,10.861-25.826,23.004-32.747,36.28
				c-4.302,8.248-7.003,17.627-7.802,27.098c7.923-4.433,16.727-7.391,25.744-8.492c6.418-0.779,12.668-0.568,18.564,0.592
				c3.053-12.481,8.337-24.959,16.97-36.102C1750.347,1411.234,1743.446,1404.458,1735.296,1399.502z M1877.422,1374.106
				c48.498,0,90.457,14.959,117.989,42.721c0.056,0.059,0.109,0.112,0.164,0.171c8.206-1.686,17.187-3.211,26.602-4.075
				c-0.963-2.432-2.836-5.541-5.38-7.437c-73.549-54.758-177.584-62.78-258.879-19.967c-4.791,2.524-9.326,5.14-13.595,7.847
				c7.069,4.936,13.211,11.045,18.455,17.795c18.4-18.676,46.438-30.463,83.493-35.08
				C1856.893,1374.757,1867.3,1374.106,1877.422,1374.106z"/>
		</g>
	</g>
</g>
</svg>
